<svg xmlns="http://www.w3.org/2000/svg" viewBox="0 0 422 513"><g stroke-width="0"><path d="M42.7 42.7c-.9 8.8 1.7 21.5 6.3 31 4.7 9.6 14.2 19.7 24.2 25.8 3.5 2.1 6.6 4.3 7 4.9s.8.8.8.4c0-.3 3.7 1.2 8.3 3.5 4.5 2.2 8.4 4.1 8.7 4.2 2.8.5 32.2 12.5 33 13.4.3.3 4 2.4 8.3 4.5 4.2 2.2 7.7 4.3 7.7 4.8 0 .4.5.8 1.1.8 3.1 0 20.1 16.6 29.5 28.8 10.7 13.7 17.7 25.9 25.3 43.6l1.7 4 3.8-9c8.4-20 21-39.3 35.3-53.7 13.9-14.1 28.7-22.9 54.3-32.5 17.5-6.5 24.8-9.9 34.6-15.7 15.2-9.3 24.7-19.6 30.1-32.8 2.7-6.5 4.3-22.5 2.9-28.3l-.7-2.8-1.9 4.1c-1 2.3-3.7 6.2-6 8.7-11 11.9-25.1 19.3-51.8 27.2-49.9 14.8-59.8 19.4-77.6 36.4-9.1 8.7-14.7 16.5-19.2 26.8-1.7 4-3.4 7.5-3.6 7.7-.2.3-2.1-3.3-4.3-7.8-5.1-11-10-17.8-18.7-26.2C165 98.2 146 89 107 78c-29.8-8.5-54-23.2-60.6-37-1-2.2-2.2-4-2.5-4s-.9 2.6-1.2 5.7m15 75.2c-4.1 19.2-5 30.1-5.1 56.1 0 39.4 3.7 64.2 14.9 97.5 15.8 47.1 37.5 79.9 71 107.3 10.9 8.9 23.4 17.4 24.8 16.9 4.4-1.7 23-15 29.7-21.4l8.1-7.6-10.8-5.2c-11.7-5.6-27.1-14.9-36.7-22.3-9.6-7.3-31-29.4-32.5-33.6-.2-.6-.7-1.3-1-1.6-.8-.6-6.1-8.8-6.1-9.4 0-.2-1.8-3.6-4-7.5s-4-7.3-4-7.7c0-.3 1.6.6 3.6 2.1 3.3 2.5 21.5 11.5 25.9 12.8 1.5.5 2.7-.3 4.9-3.4 2.8-4 13.3-11.6 19.8-14.4q3.3-1.35 1.8-1.8c-.8-.3-4-1.3-7-2.3-8.4-2.6-22.5-9.9-32.7-17.1-20.3-14-32-28-40.9-48.7-.9-2.1-1.7-4.4-1.8-5s-.5-1.6-.8-2.2c-1.5-2.3-4.8-17.5-5.8-26.4-1.4-12-1.4-36.1 0-46.4.5-4.4.9-8 .7-8.1-.1 0-3.4-2.1-7.2-4.6l-7-4.6zm285.7-3.5c-3.4 2.3-6.9 4.5-7.9 5.1-1.4.9-1.5 1.7-.3 8.5 1.7 10.2 1.7 46.3-.1 56-4.5 25-15.8 46.9-33.5 64.6-10.9 10.8-22.1 18.8-45.6 32.2-24.5 14-28.6 17.9-26.1 24.1 1 2.2 2.6 3.4 6.4 4.9 10.1 3.8 25.3 9.1 29.4 10.2 12.3 3.2 32.7 15 39 22.6l3.7 4.4 3.9-6.3c23.4-36.8 37.9-80.4 42.8-128.7 2.7-26.2 1-74.9-3.1-91-.5-1.9-1.2-5.1-1.5-7s-.7-3.5-.8-3.6-3 1.7-6.3 4"/><path d="M100.5 134.2c1.5 10.9 8.1 24.4 14.2 28.6 1.3 1 3.6 2.6 5 3.7 3.9 2.9 11.9 5.5 18.9 6.2 6.8.6 26.4-1.4 26.4-2.8 0-.5-3.5-4.5-7.7-9-7.9-8.2-18.7-16.1-30.3-21.9-6.3-3.2-24.1-10-26.1-10-.7 0-.8 1.8-.4 5.2m196.9-1.2c-20.9 7.8-37.5 18.4-47.9 30.6l-5.8 6.9 6.9 1.3c19.7 3.6 35.9-.8 46.3-12.5 5.9-6.6 8.4-11.6 10.6-20.7 1.7-7.5 1.9-9.7.8-9.5-.5.1-5.3 1.8-10.9 3.9m-9.9 104.9c-1 1.7-18.4 11.4-29.4 16.4-5.9 2.7-20.3 8.4-32.1 12.8s-24.6 9.1-28.5 10.6c-12.4 4.6-33.3 15.2-37.5 19-6.9 6.1-8.7 12.1-5.5 18.2 3.2 6.3 10.3 10.3 35 19.6 19.4 7.3 22.9 9 29 13.5 10.6 7.9 13.6 16.1 9.1 25.3-10.3 21.2-69.6 58.2-141.6 88.5-1.8.8 15.4 1.1 60.2 1.1l62.8.1 14.2-9.6c38-25.7 63.3-50.6 71.4-70.3 5.4-13.1.8-25.5-13.2-35.2-8.1-5.6-26.2-13.8-43.9-19.9-21-7.3-30.1-11.8-35-17.1-3.8-4.3-4.4-7.3-2-11.9s8.8-9.1 31.5-22c26.7-15.2 41.5-25 50.5-33.4 3.9-3.6 6.7-6.5 6.3-6.6-.4 0-.9.4-1.3.9"/></g><path fill="#005" d="M344.9 92.7c-1.3 1.6-1.2 1.7.4.4.9-.7 1.7-1.5 1.7-1.7 0-.8-.8-.3-2.1 1.3M87.7 108.1c.7.7 1.5 1 1.8.7s-.2-.9-1.2-1.2c-1.4-.6-1.5-.5-.6.5m-14.6 15.5c0 1.1.3 1.4.6.6.3-.7.2-1.6-.1-1.9-.3-.4-.6.2-.5 1.3m281 13c0 1.1.3 1.4.6.6.3-.7.2-1.6-.1-1.9-.3-.4-.6.2-.5 1.3M158 143.4c0 .2.8 1 1.8 1.7 1.5 1.3 1.6 1.2.3-.4s-2.1-2.1-2.1-1.3M71.2 149c0 1.4.2 1.9.5 1.2.2-.6.2-1.8 0-2.5-.3-.6-.5-.1-.5 1.3m285 11.5c0 1.6.2 2.2.5 1.2.2-.9.2-2.3 0-3-.3-.6-.5.1-.5 1.8m-230.5 9.6c.7.7 1.5 1 1.8.7s-.2-.9-1.2-1.2c-1.4-.6-1.5-.5-.6.5m26.1 2.6c.7.3 1.6.2 1.9-.1.4-.3-.2-.6-1.3-.5-1.1 0-1.4.3-.6.6m119.8.2c-.4.5.3.7 1.4.4 2.3-.6 2.6-1.3.6-1.3-.8 0-1.7.4-2 .9M115.7 286.1c.7.7 1.5 1 1.8.7s-.2-.9-1.2-1.2c-1.4-.6-1.5-.5-.6.5m27.2 1.6-2.4 2.8 2.8-2.4c2.5-2.3 3.2-3.1 2.4-3.1-.2 0-1.4 1.2-2.8 2.7M121 306.4c0 .2.8 1 1.8 1.7 1.5 1.3 1.6 1.2.3-.4s-2.1-2.1-2.1-1.3m64.9 74.3c-1.3 1.6-1.2 1.7.4.4.9-.7 1.7-1.5 1.7-1.7 0-.8-.8-.3-2.1 1.3m75.5 43.5-1.9 2.3 2.3-1.9c2.1-1.8 2.7-2.6 1.9-2.6-.2 0-1.2 1-2.3 2.2"/><path fill="#555580" d="M366.3 48.5c0 2.7.2 3.8.4 2.2.2-1.5.2-3.7 0-5-.2-1.2-.4 0-.4 2.8M277 126c-.9.6-1 1-.3 1 .6 0 1.5-.5 1.8-1 .8-1.2.4-1.2-1.5 0m79.1 28.6c0 1.1.3 1.4.6.6.3-.7.2-1.6-.1-1.9-.3-.4-.6.2-.5 1.3m.2 40.4c0 3 .2 4.3.4 2.7.2-1.5.2-3.9 0-5.5-.2-1.5-.4-.2-.4 2.8M192.4 375.2l-1.9 2.3 2.3-1.9c1.2-1.1 2.2-2.1 2.2-2.3 0-.8-.8-.2-2.6 1.9m79 40-1.9 2.3 2.3-1.9c2.1-1.8 2.7-2.6 1.9-2.6-.2 0-1.2 1-2.3 2.2"/><path fill="#555" d="M353.1 126.6c0 1.1.3 1.4.6.6.3-.7.2-1.6-.1-1.9-.3-.4-.6.2-.5 1.3M72.3 137c0 3 .2 4.3.4 2.7.2-1.5.2-3.9 0-5.5-.2-1.5-.4-.2-.4 2.8m0 26c0 2.5.2 3.5.4 2.2.2-1.2.2-3.2 0-4.5-.2-1.2-.4-.2-.4 2.3m285 10.5c0 3.3.2 4.5.4 2.7s.2-4.5 0-6-.4 0-.4 3.3m-104.5-.8c.7.3 1.6.2 1.9-.1.4-.3-.2-.6-1.3-.5-1.1 0-1.4.3-.6.6m-179.7 1.9c0 1.1.3 1.4.6.6.3-.7.2-1.6-.1-1.9-.3-.4-.6.2-.5 1.3m69.2-.9c.9.2 2.3.2 3 0 .6-.3-.1-.5-1.8-.5-1.6 0-2.2.2-1.2.5m6 0c.9.2 2.3.2 3 0 .6-.3-.1-.5-1.8-.5-1.6 0-2.2.2-1.2.5m117.5 0c1.2.2 3 .2 4 0 .9-.3-.1-.5-2.3-.4-2.2 0-3 .2-1.7.4m82.3 80.9c0 1.1.3 1.4.6.6.3-.7.2-1.6-.1-1.9-.3-.4-.6.2-.5 1.3m-4.4 16.3c-.4 1.7-.3 2.1.5 1.3.5-.5.8-1.6.6-2.3-.3-.8-.7-.3-1.1 1m-144.6 33.7c0 1.1.3 1.4.6.6.3-.7.2-1.6-.1-1.9-.3-.4-.6.2-.5 1.3m98.1 67.9c0 1.6.2 2.2.5 1.2.2-.9.2-2.3 0-3-.3-.6-.5.1-.5 1.8M135 376.4c0 .2.8 1 1.8 1.7 1.5 1.3 1.6 1.2.3-.4s-2.1-2.1-2.1-1.3"/><path fill="#aaa" d="M244.9 148.7c-1.3 1.6-1.2 1.7.4.4.9-.7 1.7-1.5 1.7-1.7 0-.8-.8-.3-2.1 1.3m-6 6c-1.3 1.6-1.2 1.7.4.4s2.1-2.1 1.3-2.1c-.2 0-1 .8-1.7 1.7m27 266c-1.3 1.6-1.2 1.7.4.4s2.1-2.1 1.3-2.1c-.2 0-1 .8-1.7 1.7m-150.6 43c17.5.2 45.9.2 63 0 17.2-.1 2.9-.2-31.8-.2-34.6 0-48.7.1-31.2.2"/><path fill="#8080aa" d="M253.9 140.7c-1.3 1.6-1.2 1.7.4.4s2.1-2.1 1.3-2.1c-.2 0-1 .8-1.7 1.7m-55 228c-1.3 1.6-1.2 1.7.4.4.9-.7 1.7-1.5 1.7-1.7 0-.8-.8-.3-2.1 1.3m76 43c-1.3 1.6-1.2 1.7.4.4.9-.7 1.7-1.5 1.7-1.7 0-.8-.8-.3-2.1 1.3"/></svg>